<svg data-v-423bf9ae="" xmlns="http://www.w3.org/2000/svg" viewBox="0 0 422 90" class="iconLeft"><!----><!----><!----><g data-v-423bf9ae="" id="363f39bd-f87f-44ec-9583-21b36a7a3ceb" fill="black" transform="matrix(5.830903811703725,0,0,5.830903811703725,104.92711938956867,2.3469397142517323)"><path d="M0.87 12.29L0.87 2.69L2.74 2.69L4.44 8.99L4.44 8.99Q4.55 9.42 4.64 10.16L4.64 10.16L4.64 10.16Q4.73 10.91 4.76 11.14L4.76 11.14L4.82 11.14L4.82 11.14Q4.83 10.91 4.92 10.16L4.92 10.16L4.92 10.16Q5.01 9.41 5.12 8.99L5.12 8.99L6.83 2.69L8.69 2.69L8.69 12.29L7.46 12.29L7.46 5.32L7.46 5.32Q7.46 5.11 7.50 4.56L7.50 4.56L7.50 4.56Q7.55 4.02 7.56 3.84L7.56 3.84L7.50 3.84L7.50 3.84Q7.46 4.02 7.35 4.56L7.35 4.56L7.35 4.56Q7.24 5.11 7.18 5.32L7.18 5.32L5.26 12.29L4.16 12.29L2.24 5.32L2.24 5.32Q2.16 4.97 2.07 4.50L2.07 4.50L2.07 4.50Q1.99 4.03 1.95 3.84L1.95 3.84L1.89 3.84L1.89 3.84Q1.90 4.03 1.93 4.50L1.93 4.50L1.93 4.50Q1.96 4.97 1.97 5.32L1.97 5.32L1.97 12.29L0.87 12.29ZM12.75 12.46L12.75 12.46Q11.45 12.46 10.79 11.52L10.79 11.52L10.79 11.52Q10.12 10.57 10.12 8.61L10.12 8.61L10.12 8.61Q10.12 6.65 10.79 5.71L10.79 5.71L10.79 5.71Q11.45 4.76 12.75 4.76L12.75 4.76L12.75 4.76Q14.06 4.76 14.72 5.71L14.72 5.71L14.72 5.71Q15.39 6.65 15.39 8.61L15.39 8.61L15.39 8.61Q15.39 10.57 14.72 11.52L14.72 11.52L14.72 11.52Q14.06 12.46 12.75 12.46L12.75 12.46ZM12.75 11.44L12.75 11.44Q14.18 11.44 14.18 8.88L14.18 8.88L14.18 8.34L14.18 8.34Q14.18 5.78 12.75 5.78L12.75 5.78L12.75 5.78Q11.33 5.78 11.33 8.34L11.33 8.34L11.33 8.88L11.33 8.88Q11.33 11.44 12.75 11.44L12.75 11.44ZM18.61 12.46L18.61 12.46Q17.72 12.46 17.25 11.94L17.25 11.94L17.25 11.94Q16.79 11.41 16.79 10.23L16.79 10.23L16.79 4.93L17.93 4.93L17.93 10.15L17.93 10.15Q17.93 10.86 18.20 11.15L18.20 11.15L18.20 11.15Q18.47 11.44 18.97 11.44L18.97 11.44L18.97 11.44Q19.54 11.44 19.94 10.89L19.94 10.89L19.94 10.89Q20.34 10.35 20.34 9.42L20.34 9.42L20.34 4.93L21.49 4.93L21.49 12.29L20.62 12.29L20.47 11.44L20.38 11.44L20.38 11.44Q19.81 12.46 18.61 12.46L18.61 12.46ZM25.16 12.46L25.16 12.46Q23.97 12.46 23.38 11.84L23.38 11.84L23.38 11.84Q22.79 11.21 22.79 10.30L22.79 10.30L22.79 10.30Q22.79 10.14 22.80 10.07L22.80 10.07L22.80 10.07Q22.81 10.01 22.81 10.00L22.81 10.00L24.01 10.00L24.01 10.14L24.01 10.14Q24.01 10.79 24.35 11.12L24.35 11.12L24.35 11.12Q24.68 11.45 25.21 11.45L25.21 11.45L25.21 11.45Q25.69 11.45 26.00 11.16L26.00 11.16L26.00 11.16Q26.32 10.88 26.32 10.36L26.32 10.36L26.32 10.36Q26.32 9.97 26.12 9.72L26.12 9.72L26.12 9.72Q25.93 9.46 25.65 9.32L25.65 9.32L25.65 9.32Q25.37 9.17 24.86 8.99L24.86 8.99L24.86 8.99Q24.25 8.78 23.87 8.57L23.87 8.57L23.87 8.57Q23.49 8.36 23.23 7.94L23.23 7.94L23.23 7.94Q22.96 7.53 22.96 6.86L22.96 6.86L22.96 6.86Q22.96 5.89 23.58 5.33L23.58 5.33L23.58 5.33Q24.21 4.76 25.26 4.76L25.26 4.76L25.26 4.76Q26.25 4.76 26.81 5.34L26.81 5.34L26.81 5.34Q27.37 5.92 27.37 6.78L27.37 6.78L27.36 7.04L26.17 7.04L26.17 6.92L26.17 6.92Q26.17 6.43 25.93 6.10L25.93 6.10L25.93 6.10Q25.69 5.77 25.14 5.77L25.14 5.77L25.14 5.77Q24.60 5.77 24.37 6.08L24.37 6.08L24.37 6.08Q24.15 6.38 24.15 6.78L24.15 6.78L24.15 6.78Q24.15 7.25 24.48 7.48L24.48 7.48L24.48 7.48Q24.81 7.71 25.49 7.94L25.49 7.94L25.49 7.94Q26.12 8.16 26.53 8.38L26.53 8.38L26.53 8.38Q26.94 8.60 27.22 9.03L27.22 9.03L27.22 9.03Q27.51 9.46 27.51 10.19L27.51 10.19L27.51 10.19Q27.51 11.33 26.87 11.89L26.87 11.89L26.87 11.89Q26.24 12.46 25.16 12.46L25.16 12.46ZM31.44 12.46L31.44 12.46Q30.04 12.46 29.35 11.54L29.35 11.54L29.35 11.54Q28.66 10.63 28.66 8.61L28.66 8.61L28.66 8.61Q28.66 6.64 29.34 5.70L29.34 5.70L29.34 5.70Q30.03 4.76 31.43 4.76L31.43 4.76L31.43 4.76Q32.66 4.76 33.26 5.58L33.26 5.58L33.26 5.58Q33.85 6.40 33.85 8.22L33.85 8.22L33.85 8.95L29.86 8.95L29.86 8.95Q29.88 10.23 30.26 10.84L30.26 10.84L30.26 10.84Q30.65 11.44 31.47 11.44L31.47 11.44L31.47 11.44Q32.03 11.44 32.38 10.99L32.38 10.99L32.38 10.99Q32.72 10.54 32.72 9.79L32.72 9.79L33.85 9.79L33.85 9.79Q33.85 11.02 33.19 11.74L33.19 11.74L33.19 11.74Q32.52 12.46 31.44 12.46L31.44 12.46ZM29.88 7.92L32.65 7.92L32.65 7.92Q32.65 6.87 32.34 6.33L32.34 6.33L32.34 6.33Q32.03 5.78 31.43 5.78L31.43 5.78L31.43 5.78Q30.69 5.78 30.32 6.31L30.32 6.31L30.32 6.31Q29.95 6.83 29.88 7.92L29.88 7.92ZM35.15 12.29L35.15 2.17L36.30 2.17L36.30 12.29L35.15 12.29ZM40.38 12.46L40.38 12.46Q38.98 12.46 38.28 11.54L38.28 11.54L38.28 11.54Q37.59 10.63 37.59 8.61L37.59 8.61L37.59 8.61Q37.59 6.64 38.28 5.70L38.28 5.70L38.28 5.70Q38.96 4.76 40.36 4.76L40.36 4.76L40.36 4.76Q41.59 4.76 42.19 5.58L42.19 5.58L42.19 5.58Q42.78 6.40 42.78 8.22L42.78 8.22L42.78 8.95L38.79 8.95L38.79 8.95Q38.81 10.23 39.19 10.84L39.19 10.84L39.19 10.84Q39.58 11.44 40.40 11.44L40.40 11.44L40.40 11.44Q40.96 11.44 41.31 10.99L41.31 10.99L41.31 10.99Q41.65 10.54 41.65 9.79L41.65 9.79L42.78 9.79L42.78 9.79Q42.78 11.02 42.12 11.74L42.12 11.74L42.12 11.74Q41.45 12.46 40.38 12.46L40.38 12.46ZM38.81 7.92L41.58 7.92L41.58 7.92Q41.58 6.87 41.27 6.33L41.27 6.33L41.27 6.33Q40.96 5.78 40.36 5.78L40.36 5.78L40.36 5.78Q39.62 5.78 39.25 6.31L39.25 6.31L39.25 6.31Q38.88 6.83 38.81 7.92L38.81 7.92ZM46.21 12.46L46.21 12.46Q45.02 12.46 44.44 11.84L44.44 11.84L44.44 11.84Q43.85 11.21 43.85 10.30L43.85 10.30L43.85 10.30Q43.85 10.14 43.86 10.07L43.86 10.07L43.86 10.07Q43.86 10.01 43.86 10.00L43.86 10.00L45.07 10.00L45.07 10.14L45.07 10.14Q45.07 10.79 45.40 11.12L45.40 11.12L45.40 11.12Q45.74 11.45 46.27 11.45L46.27 11.45L46.27 11.45Q46.75 11.45 47.06 11.16L47.06 11.16L47.06 11.16Q47.38 10.88 47.38 10.36L47.38 10.36L47.38 10.36Q47.38 9.97 47.18 9.72L47.18 9.72L47.18 9.72Q46.98 9.46 46.70 9.32L46.70 9.32L46.70 9.32Q46.42 9.17 45.92 8.99L45.92 8.99L45.92 8.99Q45.30 8.78 44.93 8.57L44.93 8.57L44.93 8.57Q44.55 8.36 44.28 7.94L44.28 7.94L44.28 7.94Q44.02 7.53 44.02 6.86L44.02 6.86L44.02 6.86Q44.02 5.89 44.64 5.33L44.64 5.33L44.64 5.33Q45.26 4.76 46.31 4.76L46.31 4.76L46.31 4.76Q47.31 4.76 47.87 5.34L47.87 5.34L47.87 5.34Q48.43 5.92 48.43 6.78L48.43 6.78L48.41 7.04L47.22 7.04L47.22 6.92L47.22 6.92Q47.22 6.43 46.98 6.10L46.98 6.10L46.98 6.10Q46.75 5.77 46.20 5.77L46.20 5.77L46.20 5.77Q45.65 5.77 45.43 6.08L45.43 6.08L45.43 6.08Q45.21 6.38 45.21 6.78L45.21 6.78L45.21 6.78Q45.21 7.25 45.54 7.48L45.54 7.48L45.54 7.48Q45.86 7.71 46.55 7.94L46.55 7.94L46.55 7.94Q47.18 8.16 47.59 8.38L47.59 8.38L47.59 8.38Q47.99 8.60 48.28 9.03L48.28 9.03L48.28 9.03Q48.57 9.46 48.57 10.19L48.57 10.19L48.57 10.19Q48.57 11.33 47.93 11.89L47.93 11.89L47.93 11.89Q47.29 12.46 46.21 12.46L46.21 12.46ZM51.95 12.46L51.95 12.46Q50.76 12.46 50.18 11.84L50.18 11.84L50.18 11.84Q49.59 11.21 49.59 10.30L49.59 10.30L49.59 10.30Q49.59 10.14 49.60 10.07L49.60 10.07L49.60 10.07Q49.60 10.01 49.60 10.00L49.60 10.00L50.81 10.00L50.81 10.14L50.81 10.14Q50.81 10.79 51.14 11.12L51.14 11.12L51.14 11.12Q51.48 11.45 52.01 11.45L52.01 11.45L52.01 11.45Q52.49 11.45 52.80 11.16L52.80 11.16L52.80 11.16Q53.12 10.88 53.12 10.36L53.12 10.36L53.12 10.36Q53.12 9.97 52.92 9.72L52.92 9.72L52.92 9.72Q52.72 9.46 52.44 9.32L52.44 9.32L52.44 9.32Q52.16 9.17 51.66 8.99L51.66 8.99L51.66 8.99Q51.04 8.78 50.67 8.57L50.67 8.57L50.67 8.57Q50.29 8.36 50.02 7.94L50.02 7.94L50.02 7.94Q49.76 7.53 49.76 6.86L49.76 6.86L49.76 6.86Q49.76 5.89 50.38 5.33L50.38 5.33L50.38 5.33Q51.00 4.76 52.05 4.76L52.05 4.76L52.05 4.76Q53.05 4.76 53.61 5.34L53.61 5.34L53.61 5.34Q54.17 5.92 54.17 6.78L54.17 6.78L54.15 7.04L52.96 7.04L52.96 6.92L52.96 6.92Q52.96 6.43 52.72 6.10L52.72 6.10L52.72 6.10Q52.49 5.77 51.94 5.77L51.94 5.77L51.94 5.77Q51.39 5.77 51.17 6.08L51.17 6.08L51.17 6.08Q50.95 6.38 50.95 6.78L50.95 6.78L50.95 6.78Q50.95 7.25 51.28 7.48L51.28 7.48L51.28 7.48Q51.60 7.71 52.29 7.94L52.29 7.94L52.29 7.94Q52.92 8.16 53.33 8.38L53.33 8.38L53.33 8.38Q53.73 8.60 54.02 9.03L54.02 9.03L54.02 9.03Q54.31 9.46 54.31 10.19L54.31 10.19L54.31 10.19Q54.31 11.33 53.67 11.89L53.67 11.89L53.67 11.89Q53.03 12.46 51.95 12.46L51.95 12.46Z"></path></g><!----><g data-v-423bf9ae="" id="3abee849-612b-4df8-ba1e-9b61290bbcdc" transform="matrix(1.4516129032258065,0,0,1.4516129032258065,-27.58064516129032,-27.58064516129032)" stroke="none" fill="black"><path d="M69 81c-6.6 0-12-5.4-12-12v-8H43v8c0 6.6-5.4 12-12 12s-12-5.4-12-12 5.4-12 12-12h8V43h-8c-6.6 0-12-5.4-12-12s5.4-12 12-12 12 5.4 12 12v8h14v-8c0-6.6 5.4-12 12-12s12 5.4 12 12-5.4 12-12 12h-8v14h8c6.6 0 12 5.4 12 12s-5.4 12-12 12zm-8-20v8c0 4.4 3.6 8 8 8s8-3.6 8-8-3.6-8-8-8zm-38 8c0 4.4 3.6 8 8 8s8-3.6 8-8v-8h-8c-4.4 0-8 3.6-8 8zm20-12h14V43H43zm18-18h8c4.4 0 8-3.6 8-8s-3.6-8-8-8-8 3.6-8 8zM31 23c-4.4 0-8 3.6-8 8s3.6 8 8 8h8v-8c0-4.4-3.6-8-8-8z"></path></g><!----></svg>