<svg data-v-fde0c5aa="" xmlns="http://www.w3.org/2000/svg" viewBox="0 0 300 300" class="icon"><!----><defs data-v-fde0c5aa=""><!----></defs><rect data-v-fde0c5aa="" fill="#FFEDAF" x="0" y="0" width="300px" height="300px" class="logo-background-square"></rect><!----><defs data-v-fde0c5aa=""><!----></defs><g data-v-fde0c5aa="" id="dea6da33-1ab0-44d1-b054-dfc6776c4184" fill="#722E18" stroke="none" transform="matrix(3.5483870967741935,0,0,3.5483870967741935,-27.41935483870968,-27.41935483870968)"><path d="M69 81c-6.6 0-12-5.4-12-12v-8H43v8c0 6.6-5.4 12-12 12s-12-5.4-12-12 5.4-12 12-12h8V43h-8c-6.6 0-12-5.4-12-12s5.4-12 12-12 12 5.4 12 12v8h14v-8c0-6.6 5.4-12 12-12s12 5.4 12 12-5.4 12-12 12h-8v14h8c6.6 0 12 5.4 12 12s-5.4 12-12 12zm-8-20v8c0 4.4 3.6 8 8 8s8-3.6 8-8-3.6-8-8-8zm-38 8c0 4.4 3.6 8 8 8s8-3.6 8-8v-8h-8c-4.4 0-8 3.6-8 8zm20-12h14V43H43zm18-18h8c4.4 0 8-3.6 8-8s-3.6-8-8-8-8 3.6-8 8zM31 23c-4.4 0-8 3.6-8 8s3.6 8 8 8h8v-8c0-4.4-3.6-8-8-8z"></path></g><!----></svg>