<svg data-v-423bf9ae="" xmlns="http://www.w3.org/2000/svg" viewBox="0 0 60 60" class="icon"><!----><!----><!----><!----><g data-v-423bf9ae="" id="6752caad-2f6f-43be-9db1-bad674749dd1" transform="matrix(0.967741935483871,0,0,0.967741935483871,-18.38709677419355,-18.38709677419355)" stroke="none" fill="black"><path d="M69 81c-6.6 0-12-5.4-12-12v-8H43v8c0 6.6-5.4 12-12 12s-12-5.4-12-12 5.4-12 12-12h8V43h-8c-6.6 0-12-5.4-12-12s5.4-12 12-12 12 5.4 12 12v8h14v-8c0-6.6 5.4-12 12-12s12 5.4 12 12-5.4 12-12 12h-8v14h8c6.6 0 12 5.4 12 12s-5.4 12-12 12zm-8-20v8c0 4.4 3.6 8 8 8s8-3.6 8-8-3.6-8-8-8zm-38 8c0 4.4 3.6 8 8 8s8-3.6 8-8v-8h-8c-4.4 0-8 3.6-8 8zm20-12h14V43H43zm18-18h8c4.4 0 8-3.6 8-8s-3.6-8-8-8-8 3.6-8 8zM31 23c-4.4 0-8 3.6-8 8s3.6 8 8 8h8v-8c0-4.4-3.6-8-8-8z"></path></g><!----></svg>